<?xml version="1.0" encoding="UTF-8" standalone="no"?>
<svg
   xmlns:dc="http://purl.org/dc/elements/1.1/"
   xmlns:cc="http://creativecommons.org/ns#"
   xmlns:rdf="http://www.w3.org/1999/02/22-rdf-syntax-ns#"
   xmlns:svg="http://www.w3.org/2000/svg"
   xmlns="http://www.w3.org/2000/svg"
   xmlns:sodipodi="http://sodipodi.sourceforge.net/DTD/sodipodi-0.dtd"
   xmlns:inkscape="http://www.inkscape.org/namespaces/inkscape"
   version="1.0"
   width="4000.000000pt"
   height="1311.000000pt"
   viewBox="0 0 4000.000000 1311.000000"
   preserveAspectRatio="xMidYMid meet"
   id="svg4024"
   inkscape:version="0.48.5 r10040"
   sodipodi:docname="logo-dark.svg">
  <defs
     id="defs4086" />
  <sodipodi:namedview
     pagecolor="#ffffff"
     bordercolor="#666666"
     borderopacity="1"
     objecttolerance="10"
     gridtolerance="10"
     guidetolerance="10"
     inkscape:pageopacity="0"
     inkscape:pageshadow="2"
     inkscape:window-width="1047"
     inkscape:window-height="768"
     id="namedview4084"
     showgrid="false"
     inkscape:zoom="0.208"
     inkscape:cx="3346.2763"
     inkscape:cy="1184.9041"
     inkscape:window-x="244"
     inkscape:window-y="0"
     inkscape:window-maximized="0"
     inkscape:current-layer="svg4024" />
  <metadata
     id="metadata4026">
Created by potrace 1.11, written by Peter Selinger 2001-2013
<rdf:RDF>
  <cc:Work
     rdf:about="">
    <dc:format>image/svg+xml</dc:format>
    <dc:type
       rdf:resource="http://purl.org/dc/dcmitype/StillImage" />
    <dc:title />
  </cc:Work>
</rdf:RDF>
</metadata>
  <g
     transform="translate(0.000000,1311.000000) scale(0.100000,-0.100000)"
     fill="#000000"
     stroke="none"
     id="g4028">
    <path
       d="M11628 11782 c-19 -10 -51 -36 -69 -57 -60 -68 -65 -73 -83 -97 -25 -33 -118 -176 -138 -212 -10 -17 -49 -78 -87 -136 -79 -121 -45 -102 -356 -195 -521 -156 -986 -327 -1323 -486 -46 -22 -88 -37 -95 -33 -7 4 -9 4 -5 -1 4 -4 -61 -45 -145 -90 -165 -88 -272 -151 -383 -226 -40 -26 -74 -45 -78 -42 -3 4 -6 2 -6 -4 0 -6 -33 -35 -72 -64 -148 -108 -343 -297 -463 -449 -33 -41 -63 -76 -67 -78 -5 -2 -8 -7 -8 -12 0 -15 -68 -109 -74 -102 -4 3 -4 0 -1 -9 3 -8 -4 -25 -15 -37 -11 -12 -20 -24 -20 -27 0 -6 -63 -138 -70 -145 -3 -3 -6 -9 -7 -15 -1 -5 -13 -44 -27 -86 -43 -128 -57 -237 -54 -406 2 -84 6 -153 11 -153 4 0 7 -10 7 -22 0 -13 14 -61 30 -108 16 -47 31 -89 32 -95 2 -5 6 -14 10 -20 24 -33 98 -149 99 -154 0 -3 38 -40 83 -81 46 -41 81 -79 78 -84 -3 -5 0 -6 6 -2 6 4 33 -9 59 -28 132 -93 386 -201 608 -257 44 -11 87 -22 95 -26 8 -3 22 -7 30 -8 65 -8 162 -30 166 -36 8 -13 -148 -309 -159 -302 -6 3 -7 1 -3 -5 10 -16 -92 -214 -106 -206 -7 4 -8 3 -4 -4 4 -6 -13 -49 -37 -94 -24 -46 -72 -135 -105 -199 -91 -173 -108 -200 -117 -192 -4 5 -5 3 -2 -3 9 -15 -77 -166 -88 -156 -5 4 -5 2 -1 -5 6 -10 -167 -326 -199 -363 -7 -8 -16 -25 -20 -38 -4 -13 -11 -20 -18 -16 -7 4 -9 4 -5 0 4 -5 -2 -22 -12 -40 -42 -75 -134 -221 -142 -224 -4 -2 -8 -8 -8 -14 0 -6 -11 -25 -23 -42 -13 -17 -26 -36 -28 -43 -10 -29 -195 -280 -203 -275 -5 3 -6 0 -3 -5 8 -13 -51 -89 -65 -85 -5 1 -6 -2 -3 -8 8 -14 -24 -52 -37 -44 -4 3 -7 1 -6 -4 5 -16 -76 -112 -90 -107 -8 3 -10 0 -6 -6 8 -14 -162 -188 -281 -285 -131 -108 -157 -129 -169 -133 -6 -2 -13 -7 -16 -11 -12 -17 -161 -106 -262 -156 -469 -235 -1022 -287 -1474 -138 -113 37 -333 146 -428 211 -161 111 -397 335 -388 367 2 6 0 7 -4 3 -9 -9 -135 182 -128 195 3 4 1 8 -4 8 -11 0 -68 140 -87 215 -37 149 -43 274 -20 387 24 112 37 149 51 144 7 -2 52 -31 100 -63 48 -32 99 -65 113 -74 369 -234 470 -286 756 -392 425 -158 553 -193 790 -217 156 -17 550 -8 668 14 272 52 455 140 600 290 81 83 128 158 164 258 49 138 43 405 -13 603 -40 138 -86 229 -128 249 -97 46 -134 -13 -81 -128 42 -92 60 -173 60 -276 0 -80 -4 -103 -24 -142 -13 -27 -28 -45 -34 -41 -6 3 -7 1 -3 -6 8 -13 -122 -154 -134 -146 -4 3 -10 -1 -13 -9 -16 -40 -244 -163 -392 -210 -273 -87 -612 -94 -1015 -20 -172 31 -452 107 -480 129 -8 7 -20 11 -26 8 -15 -5 -206 73 -364 151 -314 153 -768 414 -752 431 4 5 2 5 -5 1 -15 -8 -234 125 -226 138 3 5 2 6 -4 3 -5 -3 -46 17 -91 46 -45 29 -99 62 -119 75 -21 12 -44 27 -51 31 -11 7 -9 16 11 48 14 21 41 72 61 111 23 46 41 70 48 66 7 -4 8 -3 4 4 -4 6 15 55 42 109 27 54 70 143 95 198 25 55 60 132 78 170 17 39 33 75 34 80 1 6 11 28 21 50 17 35 27 43 84 63 36 12 110 41 165 65 55 23 102 42 105 42 16 3 348 170 413 208 43 26 81 47 83 47 3 0 48 27 100 60 53 33 100 57 106 54 7 -4 8 -2 4 5 -4 6 0 14 11 18 10 4 56 34 103 67 47 32 90 59 97 59 7 0 10 4 7 8 -2 4 5 13 17 20 30 16 231 172 248 193 7 8 18 13 25 9 6 -3 8 -3 4 1 -8 9 171 172 184 168 5 -1 7 1 4 6 -3 5 14 27 37 49 23 22 68 70 100 106 33 37 64 64 70 60 5 -3 7 -2 4 4 -8 12 50 83 66 80 6 -1 11 6 12 15 0 9 9 26 20 37 11 11 34 39 50 61 17 23 44 58 60 78 41 50 171 248 227 347 134 236 211 442 264 705 19 92 30 498 15 529 -5 9 -16 47 -26 85 -9 38 -33 104 -53 145 -20 42 -35 81 -33 86 1 6 -1 7 -5 2 -9 -9 -45 43 -38 55 3 5 1 7 -5 6 -13 -4 -96 84 -92 97 1 6 -1 7 -4 3 -4 -4 -25 8 -47 26 -132 114 -376 175 -566 142 -101 -18 -297 -83 -392 -131 -159 -80 -334 -223 -498 -407 -59 -66 -112 -129 -118 -140 -5 -10 -12 -16 -15 -13 -3 3 -6 -1 -6 -8 0 -6 -19 -43 -42 -80 -64 -105 -173 -326 -245 -500 -36 -87 -66 -163 -66 -168 0 -5 -5 -9 -10 -9 -6 0 -9 -3 -9 -7 4 -25 -2 -43 -13 -37 -6 4 -8 3 -5 -4 4 -5 -15 -70 -42 -144 -27 -73 -64 -177 -82 -230 -18 -55 -37 -94 -42 -91 -6 3 -7 1 -3 -5 4 -6 -25 -109 -63 -229 -38 -120 -84 -270 -102 -333 -18 -63 -35 -117 -38 -120 -3 -3 -7 -16 -9 -30 -5 -45 -238 -797 -304 -982 -19 -54 -24 -59 -62 -69 -155 -40 -201 -63 -208 -101 -3 -14 -1 -35 3 -46 10 -26 48 -29 128 -8 l53 13 -7 -25 c-18 -71 -217 -576 -236 -596 -4 -5 -103 51 -221 124 -117 73 -258 155 -313 181 l-100 47 40 10 c22 5 79 17 128 26 136 26 228 73 213 111 -8 22 -77 19 -156 -6 -104 -32 -201 -34 -494 -8 l-266 23 -52 -23 c-29 -13 -61 -24 -70 -24 -9 -1 -14 -5 -11 -10 3 -5 -4 -18 -15 -30 -33 -37 -42 -63 -42 -125 0 -115 72 -172 218 -172 95 0 160 14 292 65 63 24 100 33 118 29 94 -23 598 -296 585 -317 -3 -6 -1 -7 5 -3 7 4 27 -5 46 -21 l35 -27 -83 -161 c-95 -185 -153 -278 -166 -270 -6 3 -7 0 -4 -8 3 -9 -4 -22 -18 -31 -13 -9 -22 -19 -20 -22 6 -10 -93 -111 -134 -138 -37 -24 -158 -69 -166 -61 -2 2 -4 -14 -6 -35 -1 -22 3 -42 11 -48 8 -7 47 -10 98 -9 84 3 144 23 191 64 9 8 22 12 28 8 6 -3 9 -3 8 2 -2 5 15 24 37 43 99 85 260 287 350 440 26 44 51 80 57 80 5 0 6 5 3 10 -19 30 52 -15 158 -102 16 -13 39 -30 52 -38 80 -52 250 -184 247 -192 -1 -5 2 -7 6 -4 12 7 122 -71 122 -86 0 -6 3 -8 6 -5 7 6 52 -22 87 -54 16 -15 16 -19 -9 -85 -36 -94 -68 -205 -91 -305 -14 -67 -18 -125 -17 -289 0 -190 2 -212 27 -303 15 -54 41 -127 57 -163 16 -37 27 -71 23 -77 -3 -5 -2 -7 4 -4 6 4 16 -6 22 -21 7 -15 30 -53 52 -84 41 -60 47 -74 27 -62 -7 5 -8 3 -4 -5 5 -7 10 -10 13 -7 10 10 53 -38 48 -53 -3 -9 -3 -12 1 -8 4 4 30 -14 57 -40 92 -88 104 -98 160 -137 31 -22 54 -42 52 -46 -2 -4 1 -7 8 -7 7 0 48 -21 92 -46 44 -25 100 -53 125 -63 25 -9 50 -20 55 -24 6 -4 42 -17 80 -29 39 -13 77 -25 85 -28 47 -18 212 -43 357 -54 439 -33 922 75 1351 302 62 33 118 57 124 53 6 -4 8 -3 4 4 -3 6 20 26 56 48 35 21 108 70 162 109 55 38 103 69 108 67 4 -1 7 2 6 6 -2 5 33 37 77 72 44 35 106 88 137 118 35 33 61 51 69 46 7 -4 10 -3 6 3 -7 12 26 46 36 38 4 -3 5 -2 2 2 -8 10 77 93 88 86 6 -4 7 -1 2 7 -5 8 6 25 31 49 70 65 185 195 281 317 27 34 56 69 66 78 9 10 22 26 28 37 5 11 15 16 21 13 7 -4 8 -3 4 4 -4 7 13 36 38 68 25 31 46 59 46 62 0 4 13 21 28 37 15 17 42 54 61 82 18 30 38 50 44 46 5 -3 7 -1 3 5 -3 6 24 55 62 109 133 193 319 487 422 668 49 85 63 104 73 98 6 -3 7 -1 3 6 -7 11 14 49 198 356 49 83 94 159 100 170 6 11 53 90 104 175 l94 155 111 -8 c156 -12 473 -2 582 18 50 9 135 25 190 37 55 11 107 22 115 23 8 1 22 5 30 8 8 3 44 13 80 22 234 59 550 164 738 244 40 18 78 29 84 25 6 -4 8 -3 5 3 -4 5 6 16 21 24 15 7 62 35 104 60 42 26 80 44 84 41 4 -4 4 -1 0 6 -4 6 -3 12 2 12 4 0 23 14 40 31 18 18 34 30 37 28 2 -3 -38 -147 -89 -322 l-94 -317 -77 -73 c-138 -128 -550 -546 -630 -639 -123 -142 -270 -296 -278 -291 -6 3 -7 2 -4 -4 9 -14 -62 -95 -75 -87 -7 4 -8 2 -4 -4 4 -7 -24 -49 -66 -99 -40 -48 -115 -144 -166 -213 -52 -69 -98 -124 -104 -122 -5 1 -7 -2 -3 -7 8 -14 -49 -103 -60 -94 -4 5 -5 3 -1 -4 3 -6 -3 -27 -14 -46 -35 -60 -71 -180 -77 -257 -6 -81 14 -179 44 -212 8 -9 12 -22 8 -28 -3 -6 -3 -9 2 -8 4 1 35 -11 68 -27 53 -26 70 -30 145 -30 153 1 278 63 430 215 88 88 172 180 164 180 -2 0 13 21 33 48 20 26 40 46 45 44 5 -1 7 2 4 7 -4 5 16 42 42 83 27 40 64 99 81 131 19 32 37 54 43 50 7 -3 8 -1 4 5 -4 6 33 87 82 179 83 156 136 262 264 533 82 171 118 252 140 308 12 31 24 50 30 46 6 -4 8 -3 5 3 -4 6 22 80 57 166 43 109 71 165 92 184 131 123 205 184 215 177 7 -4 9 -3 6 3 -8 13 47 66 57 56 4 -5 6 -3 4 3 -4 13 67 76 76 67 3 -3 6 -1 6 5 0 6 48 50 108 97 101 80 132 100 116 73 -5 -7 -3 -8 5 -4 7 5 10 11 7 14 -10 10 15 31 30 25 9 -3 14 0 12 7 -4 17 150 123 165 114 7 -4 9 -4 5 1 -10 11 108 83 217 132 143 64 231 77 319 46 135 -49 219 -202 263 -478 27 -171 24 -585 -6 -810 -46 -353 -91 -557 -177 -812 -30 -89 -54 -175 -54 -191 0 -16 11 -50 24 -75 14 -25 21 -49 18 -53 -4 -4 -2 -4 5 0 7 3 14 -2 18 -14 4 -12 22 -29 42 -38 53 -25 78 -6 139 111 28 53 54 94 58 90 4 -4 5 -1 1 7 -4 13 155 308 190 350 6 8 15 23 18 33 4 11 12 15 18 11 8 -4 9 -3 5 5 -9 14 32 83 45 76 5 -4 6 0 3 8 -3 8 1 21 8 28 8 8 17 22 21 32 4 10 11 15 17 12 5 -3 7 0 5 7 -3 8 5 25 17 38 13 14 21 25 18 26 -7 2 287 445 409 614 156 218 213 290 222 284 5 -3 6 3 2 12 -5 13 -2 16 9 12 10 -4 15 -1 14 7 0 8 35 57 79 109 67 79 82 93 95 83 13 -11 13 -10 1 6 -16 20 -31 2 164 204 59 62 113 109 118 106 6 -3 7 -1 3 5 -4 7 -4 12 1 12 4 0 28 18 52 40 24 22 48 37 54 33 6 -3 7 -1 4 5 -10 15 76 62 113 62 37 0 85 -23 93 -44 4 -9 5 -46 3 -83 -3 -60 -18 -105 -135 -398 -178 -443 -269 -712 -356 -1055 -79 -312 -92 -618 -34 -805 38 -122 122 -199 248 -226 105 -22 285 19 403 91 27 17 54 27 60 24 6 -4 8 -3 4 4 -7 11 80 79 95 74 5 -1 8 2 7 7 -4 12 98 101 107 93 5 -4 5 -2 2 4 -6 10 70 81 77 73 1 -2 10 -24 19 -49 22 -59 97 -144 169 -190 31 -21 54 -41 50 -45 -4 -5 -1 -5 5 -1 7 4 33 0 58 -9 56 -18 163 -19 230 -1 53 14 142 56 188 88 15 11 34 21 42 22 8 1 18 6 22 11 4 4 2 5 -4 1 -30 -17 -9 3 35 35 114 81 289 249 430 411 41 48 80 84 85 81 6 -3 7 -2 4 4 -3 5 10 25 30 44 26 25 34 28 29 14 -5 -11 -22 -72 -39 -135 -27 -105 -30 -129 -31 -280 -1 -152 1 -169 22 -215 13 -27 45 -71 73 -97 43 -41 58 -48 119 -59 176 -31 382 53 614 250 33 28 64 47 69 44 6 -3 7 -2 4 4 -4 6 20 36 53 67 33 32 60 56 60 54 0 -14 -37 -97 -42 -93 -3 3 -11 -3 -19 -12 -13 -16 -12 -17 4 -4 9 7 17 10 17 6 0 -3 -22 -69 -50 -146 -27 -77 -50 -150 -50 -164 0 -23 4 -25 43 -25 27 0 77 16 146 45 56 25 108 42 114 38 6 -3 7 -1 3 6 -7 10 10 33 82 108 12 13 22 28 22 32 0 13 27 33 32 24 3 -4 3 -2 2 4 -2 7 19 41 46 75 27 35 61 79 75 98 15 19 56 73 92 120 35 47 96 126 133 175 108 141 256 310 270 307 6 -1 9 1 6 6 -8 14 110 125 125 117 7 -5 10 -4 5 3 -4 6 5 19 21 29 15 10 41 30 57 46 17 15 34 27 39 27 5 0 20 9 34 20 35 27 91 42 114 29 34 -17 32 -20 -96 -269 -19 -36 -95 -200 -95 -204 0 -2 -12 -30 -27 -62 -14 -33 -27 -63 -29 -69 -1 -5 -14 -49 -28 -97 -29 -101 -50 -282 -41 -348 16 -108 73 -183 162 -215 66 -23 198 -31 275 -15 72 14 160 52 240 103 31 19 60 32 64 29 4 -4 4 -2 1 4 -4 7 4 19 17 27 38 25 116 93 192 167 39 39 74 70 76 70 3 0 8 -27 11 -59 15 -168 152 -302 367 -358 80 -21 316 -23 405 -4 144 30 319 99 428 168 37 24 72 41 78 38 5 -4 8 -2 7 3 -4 13 138 113 147 104 4 -4 5 -2 3 4 -4 14 69 77 82 69 6 -4 9 -1 8 7 -2 7 3 12 10 10 8 -1 11 1 8 6 -7 12 148 164 159 155 4 -4 5 -2 1 4 -8 14 102 150 117 145 5 -1 6 2 2 7 -3 6 15 41 40 78 46 69 54 100 33 121 -29 29 -53 12 -126 -87 -132 -180 -428 -457 -464 -435 -6 4 -8 3 -5 -3 9 -14 -188 -129 -319 -186 -309 -137 -521 -151 -629 -42 -79 79 -89 164 -39 325 28 88 107 246 123 243 5 -2 8 3 5 10 -14 37 288 378 435 491 130 100 167 125 179 126 6 0 12 4 12 8 0 8 40 30 50 28 3 0 19 9 36 21 35 25 134 66 134 56 0 -4 5 -2 12 5 22 22 86 14 113 -13 31 -31 32 -75 4 -151 -17 -44 -41 -77 -109 -147 -48 -49 -92 -87 -98 -83 -6 3 -14 1 -18 -5 -5 -8 -2 -10 7 -5 8 4 1 -4 -16 -19 -50 -43 -229 -159 -247 -159 -9 0 -15 -3 -13 -7 3 -3 -8 -12 -23 -20 -15 -7 -43 -23 -62 -35 -60 -35 -182 -82 -255 -97 -75 -15 -88 -29 -65 -71 10 -20 16 -21 88 -15 223 20 542 157 753 325 82 65 176 180 209 254 34 76 35 222 3 292 -12 25 -18 50 -15 54 4 4 2 4 -4 1 -14 -8 -37 17 -26 27 4 4 2 7 -3 5 -6 -1 -32 8 -60 21 -41 19 -68 23 -150 24 -85 1 -113 -3 -185 -28 -47 -15 -107 -39 -133 -53 -26 -13 -53 -21 -60 -17 -7 4 -9 4 -5 -1 6 -7 -110 -85 -127 -85 -3 0 -16 -9 -28 -20 -12 -11 -27 -18 -35 -15 -7 2 -11 1 -8 -4 3 -5 -18 -24 -47 -42 -28 -18 -54 -36 -57 -39 -3 -3 -21 -17 -40 -30 -19 -14 -76 -59 -126 -102 -51 -42 -94 -75 -98 -72 -3 2 -4 1 -1 -3 8 -10 -16 -33 -29 -26 -6 3 -8 3 -4 -2 10 -10 -103 -131 -117 -126 -5 1 -7 -1 -3 -5 4 -4 -5 -23 -21 -43 -64 -82 -120 -183 -145 -261 -13 -39 -32 -68 -67 -102 -26 -27 -54 -48 -60 -48 -7 0 -10 -3 -6 -6 3 -3 -18 -27 -47 -52 -90 -80 -158 -137 -175 -146 -8 -5 -25 -18 -35 -28 -19 -17 -31 -22 -49 -19 -5 1 -6 -3 -3 -8 11 -18 -128 -102 -190 -115 -36 -8 -87 2 -78 15 3 5 -1 6 -9 3 -21 -8 -55 45 -68 107 -21 96 0 233 62 409 46 128 240 513 252 498 6 -10 8 -9 4 3 -3 9 10 57 29 106 59 159 56 276 -9 310 -75 38 -243 -10 -374 -109 -29 -21 -53 -37 -53 -34 0 2 -17 -13 -38 -33 -21 -20 -67 -61 -101 -91 -85 -75 -306 -296 -416 -415 -49 -54 -114 -124 -144 -154 -29 -31 -53 -58 -54 -61 -1 -16 -102 -118 -111 -113 -6 3 -8 3 -4 -2 7 -8 -31 -70 -38 -62 -2 2 8 32 22 68 14 35 36 93 49 129 25 70 124 323 200 513 29 72 51 115 57 111 6 -4 8 -2 4 4 -3 6 3 34 14 62 26 67 25 92 -5 120 -23 21 -36 24 -130 26 -65 2 -103 -1 -100 -7 6 -8 -8 -13 -28 -10 -5 1 -6 -3 -2 -9 3 -5 -3 -23 -14 -38 -11 -16 -28 -62 -37 -103 -9 -41 -32 -117 -51 -169 -19 -52 -41 -113 -48 -135 -7 -22 -43 -123 -79 -225 l-66 -185 -68 -68 c-70 -72 -302 -282 -302 -274 0 3 -17 -11 -37 -29 -82 -75 -239 -164 -289 -164 -25 0 -84 31 -78 41 3 5 -1 6 -9 3 -9 -3 -21 8 -33 33 -40 79 -13 307 59 503 43 117 77 193 89 201 5 3 9 10 8 15 -3 17 114 203 124 197 6 -4 8 -2 3 2 -4 5 0 19 9 32 29 45 15 75 -48 106 -61 29 -132 43 -170 34 -13 -4 -99 -83 -192 -176 -94 -93 -174 -167 -179 -164 -6 4 -7 1 -2 -6 4 -8 -21 -42 -71 -94 -195 -201 -377 -370 -388 -359 -4 4 -6 2 -4 -4 4 -14 -67 -75 -77 -66 -5 4 -6 3 -3 -3 3 -5 -25 -35 -63 -65 -38 -30 -85 -68 -104 -84 -21 -16 -41 -26 -51 -22 -9 3 -12 2 -9 -5 9 -14 -26 -39 -47 -33 -9 3 -19 0 -23 -5 -3 -7 1 -9 12 -6 10 3 -9 -8 -42 -25 -77 -39 -134 -40 -170 -5 -14 14 -26 34 -27 43 -2 23 -3 32 -13 67 -5 17 -3 53 4 88 13 61 50 149 61 142 3 -2 6 4 7 14 1 14 57 115 73 131 3 3 26 37 52 75 99 148 371 423 406 410 7 -3 11 -1 8 4 -8 12 38 46 168 125 307 188 550 250 738 190 27 -9 52 -23 58 -32 5 -9 10 -13 10 -9 0 4 11 -4 23 -19 29 -33 57 -27 57 12 0 75 -90 168 -194 202 -117 39 -335 26 -496 -28 -68 -23 -189 -81 -302 -144 -37 -21 -73 -34 -79 -30 -7 4 -9 3 -6 -4 7 -10 -81 -69 -96 -64 -5 1 -6 -2 -2 -8 3 -5 2 -10 -3 -10 -5 0 -65 -41 -133 -92 -68 -51 -127 -91 -132 -90 -4 1 -6 -2 -5 -6 2 -6 -71 -76 -127 -121 -5 -4 -41 -44 -79 -87 -38 -43 -74 -77 -80 -76 -6 2 -8 0 -4 -4 6 -6 -22 -57 -42 -74 -18 -17 -96 -179 -109 -227 -10 -35 -27 -56 -107 -125 -53 -46 -101 -81 -107 -80 -7 2 -9 1 -5 -3 8 -8 -87 -87 -99 -83 -5 2 -20 -7 -33 -20 -46 -43 -149 -85 -220 -89 -56 -4 -70 -2 -100 19 -44 30 -74 84 -90 159 -20 91 -8 346 23 499 40 199 127 497 141 483 4 -4 4 0 1 8 -5 14 12 70 44 144 5 11 28 70 51 130 23 61 57 148 75 195 18 47 46 119 61 160 16 41 33 78 39 82 5 4 7 8 3 8 -4 0 15 65 42 144 87 257 117 466 81 556 -26 64 -73 119 -120 142 -56 28 -181 30 -250 4 -24 -9 -48 -13 -54 -9 -6 4 -7 1 -2 -7 6 -10 4 -12 -9 -7 -10 4 -15 3 -11 -3 3 -6 -2 -13 -12 -17 -54 -20 -156 -110 -269 -238 -49 -55 -92 -99 -96 -98 -4 2 -7 -1 -5 -5 3 -12 -154 -202 -166 -202 -6 0 -8 -3 -4 -6 3 -3 -22 -41 -56 -83 -34 -42 -70 -89 -80 -104 -10 -15 -23 -25 -29 -21 -6 4 -8 3 -5 -3 8 -13 -37 -75 -48 -65 -5 4 -5 2 -2 -5 4 -6 -3 -24 -16 -40 -13 -15 -53 -69 -89 -120 -36 -51 -67 -90 -70 -88 -3 3 -5 -1 -5 -8 0 -6 -24 -48 -54 -91 -30 -43 -59 -86 -64 -95 -6 -9 -37 -56 -70 -106 -32 -49 -107 -167 -166 -262 -58 -95 -108 -170 -111 -168 -3 3 -5 -1 -5 -8 0 -21 -69 -127 -78 -119 -5 4 -5 1 -1 -5 6 -12 -33 -79 -176 -303 -26 -41 -48 -70 -48 -63 0 6 5 15 10 18 6 4 8 10 5 14 -2 5 11 55 29 112 19 57 42 132 52 167 9 34 20 62 23 62 4 0 7 8 7 18 0 9 19 82 41 162 23 80 56 210 73 290 18 80 34 152 37 160 3 8 6 29 8 45 2 17 10 83 19 148 18 134 21 360 5 457 -28 176 -111 363 -200 451 -60 59 -160 117 -249 144 -85 26 -336 32 -420 11 -70 -18 -198 -75 -295 -133 -85 -51 -225 -144 -231 -155 -3 -4 -10 -6 -15 -3 -5 4 -9 2 -9 -3 0 -5 -41 -41 -91 -78 -49 -38 -109 -83 -132 -101 -23 -17 -46 -29 -51 -26 -5 4 -6 2 -3 -4 3 -5 -4 -18 -16 -28 -12 -10 -32 -27 -45 -38 -17 -16 -6 19 54 164 42 101 85 210 97 241 11 31 25 54 30 51 6 -3 7 -1 3 5 -3 6 27 93 67 194 89 220 89 223 68 242 -22 20 -145 39 -206 31 -102 -13 -109 -18 -154 -112 -48 -99 -122 -213 -195 -298 -74 -88 -169 -175 -184 -170 -7 3 -11 1 -8 -3 9 -15 -428 -260 -494 -277 -3 -1 -27 -12 -55 -24 -116 -53 -345 -135 -345 -124 0 3 -6 1 -12 -5 -19 -15 -248 -69 -369 -87 -57 -9 -157 -18 -223 -22 -133 -6 -385 4 -406 17 -10 6 -2 26 37 87 28 43 62 97 75 121 14 23 28 39 32 35 4 -4 4 1 0 11 -6 15 -4 17 6 11 9 -5 11 -4 6 3 -4 7 15 51 42 100 27 48 68 123 92 167 23 44 46 85 50 90 7 10 75 132 163 295 52 97 62 111 72 102 5 -4 5 -2 2 5 -10 16 3 44 16 36 6 -3 7 -1 3 6 -4 6 6 34 23 61 17 28 31 52 31 55 0 9 113 210 128 228 8 9 12 17 9 17 -3 0 11 30 32 68 21 37 59 108 86 157 26 50 58 106 69 125 12 19 34 61 51 92 16 31 33 54 37 52 4 -3 5 3 1 12 -5 13 -3 15 7 9 9 -5 11 -4 6 3 -10 16 12 54 26 46 7 -4 8 -3 4 4 -4 6 16 55 45 109 28 54 76 145 107 203 30 58 58 110 62 115 7 10 48 84 133 247 23 42 45 74 50 71 6 -3 7 -1 3 5 -7 12 29 92 46 103 5 3 10 10 9 15 0 20 134 262 143 257 5 -3 6 -1 2 5 -21 35 113 179 217 232 123 63 167 134 167 269 0 42 -27 243 -46 349 -12 63 -57 79 -126 44z m-5305 -563 c129 -20 220 -87 278 -204 87 -177 84 -488 -6 -825 -43 -158 -77 -260 -85 -255 -5 3 -6 -5 -2 -17 4 -16 2 -19 -8 -13 -9 5 -11 4 -6 -3 14 -23 -138 -357 -157 -345 -6 3 -7 1 -3 -5 9 -15 -34 -93 -47 -85 -6 3 -7 1 -3 -6 8 -12 -42 -101 -56 -101 -5 0 -8 -6 -8 -14 0 -8 -39 -68 -86 -133 -83 -114 -116 -155 -99 -123 5 9 4 12 -1 7 -5 -5 -9 -12 -9 -17 0 -15 -46 -71 -54 -65 -5 2 -8 -3 -7 -13 0 -9 -5 -16 -12 -14 -6 1 -11 -2 -10 -6 5 -14 -105 -131 -117 -125 -5 4 -7 2 -2 -2 10 -11 -33 -56 -46 -48 -6 3 -7 2 -4 -4 8 -12 -219 -232 -310 -300 -21 -15 -47 -36 -57 -46 -48 -42 -136 -108 -136 -100 0 4 -5 1 -10 -7 -5 -9 -42 -38 -82 -65 -40 -28 -75 -52 -78 -55 -15 -15 -198 -130 -207 -130 -6 0 -13 -4 -15 -8 -5 -12 -112 -73 -308 -174 -162 -85 -181 -93 -173 -73 3 8 10 12 16 8 6 -3 7 -1 3 5 -4 7 25 94 64 195 40 100 91 236 115 302 24 66 66 183 94 260 29 77 61 176 72 220 30 116 90 328 97 340 4 6 8 18 9 28 6 37 96 292 105 295 4 2 6 7 3 11 -2 5 25 89 61 187 36 98 69 190 74 204 47 148 167 423 181 414 5 -3 7 1 4 8 -6 15 91 193 169 313 29 44 58 90 65 103 7 12 17 20 23 16 6 -4 8 -3 5 3 -4 6 11 34 33 63 22 30 40 56 40 60 0 3 39 47 88 97 147 154 267 218 462 247 48 7 72 6 143 -5z m4735 -241 c-8 -13 -39 -68 -68 -123 -29 -55 -69 -127 -89 -160 -20 -33 -36 -62 -36 -65 0 -3 -36 -70 -79 -150 -44 -80 -87 -160 -96 -178 -9 -18 -20 -29 -25 -25 -4 4 -5 3 -2 -3 9 -15 -77 -166 -88 -156 -5 4 -5 2 -1 -5 9 -16 -14 -64 -27 -56 -6 3 -7 1 -3 -6 4 -6 3 -17 -2 -24 -8 -11 -55 -97 -146 -269 -16 -31 -34 -54 -39 -51 -6 3 -7 1 -3 -6 4 -6 -6 -33 -22 -59 -16 -27 -33 -58 -36 -70 -4 -13 -12 -19 -18 -16 -7 4 -8 2 -4 -5 4 -6 1 -22 -7 -34 -8 -12 -40 -71 -72 -132 -32 -60 -81 -153 -111 -205 -29 -52 -60 -112 -70 -132 -9 -20 -22 -34 -27 -31 -6 3 -7 1 -4 -4 9 -15 -103 -224 -116 -216 -6 3 -7 1 -3 -5 7 -12 -98 -222 -118 -234 -6 -4 -7 -8 -3 -8 9 0 -24 -60 -33 -60 -4 0 -7 -6 -7 -12 0 -7 -68 -143 -152 -303 -83 -159 -157 -301 -163 -314 -7 -13 -18 -25 -25 -28 -17 -7 -234 68 -337 117 -118 56 -205 110 -296 183 -83 67 -196 191 -194 212 1 8 -3 13 -8 12 -5 -1 -29 34 -54 78 -135 244 -164 562 -82 890 25 102 101 271 163 366 53 81 115 155 127 152 4 -2 5 3 2 10 -5 14 220 236 233 229 2 -1 14 9 28 22 14 13 44 36 67 52 24 15 53 37 65 47 12 11 27 16 34 12 7 -5 10 -4 6 2 -13 21 307 196 614 336 267 122 899 332 1144 382 11 2 58 17 105 33 47 16 87 30 89 31 2 0 -3 -9 -11 -21z m476 -3800 c-10 -24 -23 -46 -29 -50 -5 -4 -7 -8 -3 -8 13 0 -23 -81 -180 -412 -25 -53 -49 -95 -54 -92 -4 3 -6 -1 -3 -8 6 -17 -69 -150 -80 -141 -4 5 -5 3 -1 -4 7 -12 -83 -192 -135 -271 -16 -24 -29 -45 -29 -47 0 -16 -118 -184 -125 -178 -4 5 -5 3 -2 -4 7 -12 -29 -64 -113 -163 -12 -14 -18 -19 -14 -11 5 9 3 12 -5 7 -6 -4 -9 -12 -5 -17 8 -13 -114 -131 -128 -123 -7 4 -8 3 -4 -4 16 -26 -157 -112 -224 -112 -68 0 -111 86 -89 178 16 63 77 192 95 199 7 3 12 9 9 13 -6 10 171 250 185 250 5 0 9 3 7 8 -1 4 31 47 72 95 53 63 79 86 90 82 13 -5 13 -4 4 6 -10 10 -3 23 35 63 26 28 50 50 54 48 5 -1 7 2 5 7 -3 10 193 238 329 381 197 208 348 360 352 355 3 -3 -3 -24 -14 -47z"
       id="path4030" />
    <path
       d="M9718 7149 c-88 -13 -165 -76 -194 -158 -19 -51 -17 -91 6 -135 10 -22 17 -42 15 -46 -2 -4 1 -7 8 -8 7 0 31 -8 55 -16 34 -13 52 -14 90 -5 26 5 56 16 67 23 11 7 25 14 30 15 6 1 14 9 18 17 5 8 14 11 20 8 7 -4 9 -4 5 0 -4 5 3 27 15 49 30 58 31 154 1 194 -12 15 -34 35 -50 43 -16 8 -31 17 -34 20 -3 3 -26 3 -52 -1z"
       id="path4032" />
    <path
       d="M24880 7153 c-25 -2 -62 -7 -82 -13 -21 -5 -57 -15 -80 -21 -24 -7 -56 -17 -73 -25 -16 -7 -42 -15 -57 -19 -15 -4 -29 -13 -32 -21 -3 -8 -12 -14 -21 -14 -8 0 -15 -4 -15 -10 0 -5 -6 -10 -14 -10 -8 0 -16 -7 -20 -15 -3 -8 -14 -15 -24 -15 -10 0 -31 -16 -46 -35 -16 -19 -34 -35 -41 -35 -8 0 -17 -10 -20 -21 -4 -12 -20 -35 -36 -50 -16 -16 -29 -33 -29 -39 0 -5 -4 -10 -9 -10 -5 0 -11 -8 -15 -17 -3 -10 -10 -25 -15 -33 -5 -8 -17 -33 -26 -55 -10 -22 -23 -53 -31 -69 -8 -16 -14 -42 -14 -58 0 -15 -4 -28 -10 -28 -5 0 -10 -10 -10 -22 0 -13 -7 -42 -15 -65 -12 -34 -14 -76 -10 -195 3 -84 9 -164 14 -178 5 -14 14 -50 21 -80 7 -30 28 -88 46 -128 19 -40 34 -75 34 -78 0 -2 9 -14 20 -26 11 -12 20 -32 20 -44 0 -14 8 -25 19 -29 19 -6 111 -110 111 -126 0 -5 11 -11 25 -15 14 -3 25 -10 25 -14 0 -5 20 -18 45 -30 25 -12 45 -26 45 -31 0 -5 9 -9 19 -9 11 0 22 -4 25 -9 3 -4 30 -16 61 -25 30 -10 55 -21 55 -26 0 -4 15 -11 33 -14 86 -16 354 -29 362 -17 2 5 39 11 81 15 45 4 82 13 91 22 8 7 23 14 33 14 11 0 50 16 87 37 98 52 104 56 125 76 10 9 24 17 32 17 8 0 17 9 21 19 3 11 14 23 24 26 10 3 27 17 37 32 11 14 28 37 40 52 34 43 121 203 134 246 6 22 15 49 20 60 36 85 45 381 15 490 -9 33 -21 77 -26 97 -11 45 -39 108 -56 126 -7 7 -13 17 -13 22 0 4 -27 48 -59 97 -58 85 -107 130 -216 198 -16 10 -34 24 -38 32 -4 7 -17 13 -27 13 -10 0 -34 9 -52 19 -18 10 -80 31 -138 45 -104 25 -195 30 -350 19z m333 -151 c91 -21 167 -53 187 -78 7 -7 18 -14 25 -14 19 0 75 -49 75 -65 0 -8 9 -16 19 -20 11 -3 26 -16 34 -28 8 -12 28 -37 46 -56 17 -18 31 -39 31 -47 0 -15 18 -51 36 -71 7 -6 20 -45 29 -85 10 -40 22 -80 26 -89 15 -30 20 -182 9 -274 -21 -176 -80 -334 -149 -398 -16 -15 -33 -36 -36 -47 -3 -10 -28 -33 -55 -49 -28 -17 -50 -35 -50 -40 0 -5 -10 -13 -22 -17 -12 -3 -29 -14 -39 -23 -20 -18 -68 -38 -172 -70 -54 -17 -92 -21 -190 -20 -67 0 -144 5 -172 10 -27 5 -63 13 -80 16 -16 3 -34 9 -40 13 -5 4 -28 13 -50 20 -22 7 -50 24 -62 36 -12 13 -26 24 -31 24 -6 0 -25 12 -42 28 -18 15 -47 39 -64 54 -18 15 -41 43 -52 64 -10 20 -29 47 -41 60 -13 13 -23 32 -23 43 0 19 -29 91 -41 101 -31 28 -68 420 -39 420 6 0 10 13 10 29 0 16 9 62 19 102 17 67 33 100 105 224 13 22 40 49 60 60 20 11 46 35 58 52 13 18 31 35 41 39 10 3 29 16 44 30 14 13 38 24 52 24 15 0 36 7 48 15 12 8 56 22 99 30 42 8 80 17 83 20 12 13 231 -3 314 -23z"
       id="path4034"
       style="fill:#29af8c;fill-opacity:1" />
    <path
       d="M31130 7153 c-121 -8 -239 -38 -335 -85 -54 -26 -102 -48 -106 -48 -9 0 -48 -32 -96 -77 -19 -18 -43 -35 -53 -38 -10 -3 -22 -15 -25 -26 -4 -10 -11 -19 -16 -19 -5 0 -9 -5 -9 -11 0 -6 -18 -36 -40 -66 -22 -31 -40 -62 -40 -69 0 -7 -5 -14 -11 -16 -21 -7 -75 -186 -93 -308 -10 -73 -10 -302 1 -309 5 -3 16 -35 23 -71 12 -58 24 -91 51 -140 5 -8 18 -33 30 -55 84 -156 185 -253 343 -330 51 -25 100 -45 109 -45 9 0 19 -4 22 -10 3 -5 16 -10 28 -10 13 0 48 -7 80 -15 179 -47 436 -10 621 88 34 17 65 38 69 45 4 6 14 12 20 12 7 0 33 22 59 48 l47 48 -35 37 c-38 40 -68 47 -83 20 -5 -10 -27 -27 -48 -38 -21 -11 -47 -28 -57 -37 -11 -10 -23 -18 -27 -18 -4 0 -14 -6 -21 -12 -24 -23 -112 -50 -228 -69 -97 -16 -131 -18 -217 -9 -57 5 -118 16 -136 24 -19 7 -53 17 -76 21 -22 4 -41 11 -41 16 0 5 -5 9 -11 9 -6 0 -25 11 -43 25 -18 13 -49 32 -70 40 -21 9 -40 25 -43 35 -3 11 -14 22 -24 25 -18 6 -112 134 -126 173 -4 9 -9 19 -13 22 -12 10 -59 177 -66 240 -11 80 -6 280 6 295 5 6 13 39 19 73 5 34 19 75 30 91 12 16 21 33 21 39 0 21 52 102 66 102 8 0 14 6 14 13 0 14 56 67 71 67 5 0 9 8 9 18 0 15 29 36 123 89 46 26 94 43 147 52 30 5 84 17 120 25 82 19 141 20 210 1 30 -8 74 -15 97 -15 24 0 48 -7 57 -15 8 -8 30 -18 47 -22 37 -7 120 -56 194 -114 51 -40 75 -48 75 -27 0 7 11 24 25 38 23 24 25 30 14 54 -7 14 -16 26 -21 26 -5 0 -20 11 -34 25 -14 14 -30 25 -36 25 -12 0 -82 44 -106 67 -6 6 -22 15 -35 18 -12 3 -31 10 -42 14 -23 10 -103 34 -160 49 -41 11 -162 19 -225 15z"
       id="path4036"
       style="fill:#29af8c;fill-opacity:1" />
    <path
       d="M34710 7153 c-102 -10 -298 -79 -338 -120 -7 -7 -24 -16 -38 -19 -13 -3 -43 -25 -67 -49 -24 -23 -53 -46 -64 -49 -12 -4 -24 -18 -27 -31 -4 -14 -12 -25 -19 -25 -6 0 -20 -20 -30 -45 -11 -25 -23 -45 -27 -45 -5 0 -11 -13 -15 -30 -4 -16 -12 -33 -18 -37 -24 -16 -48 -87 -73 -214 -21 -112 -24 -148 -20 -258 6 -138 18 -211 47 -279 11 -24 19 -51 19 -59 0 -9 18 -44 40 -79 21 -34 42 -74 46 -88 3 -14 14 -28 24 -31 11 -3 27 -23 36 -45 11 -24 26 -41 40 -44 12 -3 26 -15 29 -26 3 -11 12 -20 19 -20 7 0 31 -13 53 -29 58 -42 170 -101 193 -101 10 0 25 -6 32 -13 7 -8 47 -17 88 -21 41 -4 80 -12 87 -18 16 -13 234 -2 343 17 25 4 47 11 50 15 3 5 41 23 85 40 44 17 89 40 100 49 11 10 32 21 47 25 15 3 32 12 37 19 6 6 33 37 60 67 28 30 51 58 51 63 0 4 5 7 11 7 17 0 57 50 64 79 3 14 17 42 30 61 13 19 31 60 39 90 8 30 20 71 26 90 7 19 16 49 22 65 5 17 12 98 15 181 5 142 4 156 -20 235 -14 46 -28 98 -32 114 -11 51 -93 209 -130 251 -19 21 -35 45 -35 52 0 6 -5 12 -11 12 -6 0 -28 18 -50 40 -22 22 -44 40 -49 40 -5 0 -20 11 -34 25 -14 14 -30 25 -36 25 -5 0 -10 4 -10 9 0 4 -21 14 -47 21 -27 7 -55 19 -63 25 -8 7 -28 15 -45 19 -16 4 -48 12 -70 17 -90 23 -255 33 -365 22z m319 -147 c41 -9 83 -23 95 -31 11 -8 32 -15 47 -15 14 0 37 -10 51 -22 14 -13 38 -30 54 -38 16 -9 34 -26 41 -40 6 -13 25 -31 42 -39 16 -9 43 -34 58 -56 48 -66 113 -191 113 -216 1 -13 7 -35 15 -49 8 -14 14 -40 15 -58 0 -18 4 -41 9 -50 4 -9 4 -84 0 -167 -9 -154 -29 -243 -70 -311 -11 -17 -19 -37 -19 -43 0 -25 -126 -191 -145 -191 -6 0 -29 -16 -51 -35 -21 -19 -47 -38 -56 -41 -10 -3 -18 -9 -18 -14 0 -5 -19 -15 -42 -21 -24 -7 -48 -16 -54 -21 -27 -20 -164 -38 -292 -38 -115 0 -144 4 -181 20 -24 11 -56 20 -71 20 -16 0 -35 6 -42 13 -7 7 -25 18 -40 24 -16 7 -28 17 -28 22 0 5 -12 12 -26 15 -15 4 -32 12 -39 19 -7 7 -36 32 -64 56 -28 24 -69 75 -92 115 -23 39 -47 78 -54 86 -7 8 -16 30 -20 49 -4 18 -15 52 -25 75 -13 29 -21 85 -28 195 -10 145 -9 158 13 245 35 136 45 166 55 166 5 0 14 18 20 39 5 21 17 42 25 45 8 3 15 11 15 18 0 16 75 98 90 98 5 0 10 6 10 13 0 18 52 67 72 67 8 0 21 6 27 14 6 8 26 20 44 27 18 7 38 19 45 26 7 7 28 13 45 14 18 1 61 9 97 19 83 23 254 21 359 -4z"
       id="path4038"
       style="fill:#29af8c;fill-opacity:1" />
    <path
       d="M23150 7139 c0 -4 -19 -10 -42 -14 -46 -7 -193 -69 -219 -91 -8 -8 -23 -14 -32 -14 -9 0 -37 -20 -64 -45 -26 -24 -51 -45 -55 -45 -8 0 -78 -68 -78 -76 0 -3 -22 -40 -50 -82 -27 -42 -50 -82 -50 -89 0 -7 -3 -13 -7 -13 -10 0 -33 -49 -33 -68 0 -8 -6 -28 -14 -45 -53 -121 -49 -423 10 -617 18 -63 69 -163 99 -196 11 -12 38 -45 59 -73 22 -28 44 -51 50 -51 6 0 22 -16 36 -35 18 -24 57 -50 135 -90 61 -30 120 -55 133 -55 12 0 22 -4 22 -9 0 -5 12 -11 28 -14 15 -3 45 -10 67 -16 61 -17 339 -14 404 3 30 8 59 20 64 25 6 6 21 11 33 11 27 0 234 105 242 122 2 4 18 16 37 28 47 29 49 52 10 94 -36 40 -55 44 -81 19 -30 -30 -108 -83 -123 -83 -7 0 -21 -8 -30 -18 -26 -28 -206 -81 -295 -86 -129 -8 -293 17 -368 55 -10 5 -24 9 -31 9 -7 0 -28 13 -47 30 -19 16 -43 29 -52 30 -45 1 -238 234 -238 288 0 10 -12 47 -26 83 -15 35 -29 82 -31 104 -11 98 -14 259 -5 279 6 12 16 55 23 96 7 41 21 91 31 110 10 19 18 40 18 46 0 6 7 17 15 24 8 7 15 21 15 31 0 11 4 19 8 19 13 0 52 36 52 47 0 34 189 183 233 183 8 0 20 6 26 14 12 14 55 25 121 32 19 1 65 10 103 20 72 17 121 16 259 -9 43 -7 86 -21 96 -30 10 -9 31 -17 45 -17 16 0 32 -8 39 -20 7 -11 23 -20 35 -20 13 0 32 -9 43 -20 12 -12 32 -25 45 -30 14 -5 25 -16 25 -24 0 -7 14 -16 31 -20 27 -5 37 -1 64 27 27 27 31 37 22 52 -14 25 -55 62 -92 82 -16 9 -32 19 -35 23 -9 14 -123 70 -141 70 -9 0 -19 3 -21 8 -4 10 -99 42 -125 42 -12 0 -24 4 -27 9 -7 11 -366 11 -366 0z"
       id="path4040"
       style="fill:#29af8c;fill-opacity:1" />
    <path
       d="M37270 7139 c0 -4 -9 -11 -20 -14 -20 -6 -20 -15 -20 -686 0 -537 -3 -679 -12 -679 -20 0 -35 13 -39 34 -2 11 -17 27 -34 36 -16 9 -31 26 -33 37 -2 11 -14 25 -28 32 -13 6 -28 21 -33 33 -5 13 -25 41 -45 63 -20 22 -36 46 -36 53 0 6 -7 12 -15 12 -9 0 -19 8 -22 18 -4 9 -17 28 -29 42 -13 14 -43 48 -68 76 -25 28 -46 56 -46 62 0 10 -11 24 -81 98 -16 16 -29 39 -29 50 0 12 -10 24 -29 31 -16 6 -37 25 -46 43 -10 18 -28 45 -41 59 -13 14 -24 28 -24 32 0 3 -21 29 -47 56 -59 63 -72 78 -101 121 -12 19 -41 54 -64 78 -23 24 -49 56 -58 71 -9 16 -24 34 -33 42 -10 7 -17 20 -17 27 0 8 -4 14 -10 14 -5 0 -10 7 -10 15 0 9 -11 20 -25 25 -14 5 -25 14 -25 20 0 6 -20 32 -45 58 -38 39 -48 45 -63 36 -16 -10 -17 -66 -20 -863 l-2 -851 26 -10 c14 -6 41 -10 60 -10 28 0 36 5 45 27 6 16 9 260 9 672 0 355 -1 652 0 659 0 6 6 12 14 12 19 0 86 -64 86 -82 0 -8 23 -34 50 -58 28 -24 50 -50 50 -57 0 -7 4 -13 10 -13 5 0 17 -15 26 -32 18 -37 32 -53 86 -105 20 -19 39 -45 42 -58 3 -13 14 -26 24 -29 10 -4 26 -24 35 -45 12 -26 26 -41 42 -45 14 -4 25 -11 25 -16 0 -6 8 -18 18 -28 10 -10 26 -29 35 -43 9 -13 28 -37 42 -54 70 -81 115 -140 115 -151 0 -7 23 -36 50 -66 93 -99 100 -107 100 -112 0 -9 27 -41 149 -176 17 -19 31 -38 31 -43 0 -5 30 -42 67 -83 65 -73 95 -89 107 -59 7 20 9 1696 1 1703 -10 11 -95 29 -95 21z"
       id="path4042"
       style="fill:#29af8c;fill-opacity:1" />
    <path
       d="M26191 7126 c-16 -19 -16 -1693 0 -1713 10 -11 109 -13 553 -11 l541 3 0 65 0 65 -480 5 -480 5 -3 784 c-1 559 -5 788 -13 798 -15 18 -103 17 -118 -1z"
       id="path4044"
       style="fill:#29af8c;fill-opacity:1" />
    <path
       d="M28889 7126 c-15 -16 -12 -1699 3 -1714 17 -17 1155 -17 1193 0 22 10 25 17 25 64 0 39 -4 54 -17 60 -10 5 -254 11 -543 14 l-525 5 0 325 0 325 494 2 c394 1 496 4 502 15 12 18 11 76 -1 99 -10 18 -26 19 -493 19 -362 0 -486 3 -495 12 -9 9 -12 93 -12 314 0 264 2 305 16 319 14 14 71 15 515 15 275 -1 504 2 509 5 15 9 13 115 -2 120 -27 9 -1159 10 -1169 1z"
       id="path4046"
       style="fill:#29af8c;fill-opacity:1" />
    <path
       d="M33539 7128 c-2 -7 -3 -396 -1 -865 l3 -852 35 -7 c20 -4 49 -3 65 2 l29 9 0 846 c0 466 -3 854 -6 863 -8 20 -120 23 -125 4z"
       id="path4048"
       style="fill:#29af8c;fill-opacity:1" />
    <path
       d="M27543 7123 c-10 -4 -13 -184 -13 -853 0 -668 3 -851 13 -857 15 -10 892 -17 1004 -8 l81 7 4 44 c7 92 52 84 -487 84 l-475 0 0 789 c0 710 -2 789 -16 795 -18 7 -93 7 -111 -1z"
       id="path4050"
       style="fill:#29af8c;fill-opacity:1" />
    <path
       d="M31912 7110 c-11 -18 -10 -38 5 -92 4 -16 29 -18 305 -20 l301 -3 -2 -771 c-2 -588 1 -777 10 -797 11 -24 18 -27 64 -27 32 0 57 5 64 13 8 10 12 239 13 798 l3 784 300 5 c165 3 301 7 303 8 2 1 2 28 0 60 l-3 57 -675 3 c-668 2 -675 2 -688 -18z"
       id="path4052"
       style="fill:#29af8c;fill-opacity:1" />
    <path
       d="M17690 5554 c-1891 -53 -3777 -327 -5900 -855 -245 -61 -481 -121 -525 -134 -44 -12 -152 -42 -240 -65 -207 -54 -771 -216 -995 -285 -96 -30 -229 -70 -295 -90 -177 -53 -579 -183 -917 -297 -164 -54 -303 -96 -309 -92 -7 4 -9 3 -5 -4 4 -7 -6 -15 -26 -21 -18 -5 -94 -30 -168 -56 -74 -26 -139 -48 -145 -50 -5 -1 -23 -7 -40 -14 -34 -14 -53 -21 -225 -84 -279 -100 -879 -329 -990 -377 -25 -11 -119 -49 -210 -86 -329 -133 -587 -247 -664 -292 -87 -52 -200 -154 -216 -196 -13 -36 -13 -137 1 -173 13 -35 46 -71 83 -90 31 -16 18 -20 236 72 264 112 373 154 382 149 7 -4 8 -2 4 4 -4 7 -1 13 8 13 24 2 29 4 51 16 62 33 347 143 356 137 7 -4 9 -3 6 3 -6 10 322 144 360 147 11 0 19 4 17 8 -2 4 6 10 18 14 13 4 108 40 213 82 104 41 194 75 200 76 5 1 15 4 20 8 14 8 602 229 618 232 6 1 21 7 32 13 11 6 173 65 360 133 187 67 371 133 408 147 38 14 71 22 74 19 4 -3 13 0 22 8 26 21 1293 449 1427 481 11 3 105 32 209 65 105 34 204 62 221 63 18 1 30 5 28 8 -3 6 62 27 401 126 590 172 1339 368 1840 483 99 22 248 56 330 75 1035 236 2254 426 3205 500 303 23 495 33 898 46 770 26 1700 -34 2301 -146 42 -8 92 -17 111 -20 139 -21 474 -96 478 -106 2 -5 8 -7 12 -4 8 5 154 -27 190 -42 8 -3 24 -8 35 -10 24 -4 181 -47 290 -79 153 -45 290 -74 348 -74 79 0 195 19 237 39 65 30 47 112 -27 126 -21 4 -47 14 -57 23 -13 11 -17 12 -11 3 6 -10 4 -13 -6 -9 -8 3 -72 20 -144 37 -71 18 -137 35 -145 38 -8 3 -24 7 -35 9 -11 1 -63 12 -115 24 -339 75 -763 149 -1115 194 -110 15 -213 28 -230 31 -67 10 -529 51 -725 65 -402 27 -1189 44 -1550 34z"
       id="path4054" />
    <path
       d="M28685 4136 c-145 -47 -205 -121 -205 -251 0 -168 91 -239 352 -274 146 -20 206 -63 195 -142 -7 -50 -21 -67 -76 -91 -78 -33 -211 -24 -281 21 -32 20 -70 62 -70 78 0 6 -6 13 -12 16 -15 5 -148 -63 -148 -76 0 -22 43 -87 83 -124 78 -72 145 -93 303 -93 188 0 299 48 353 153 26 51 31 71 31 131 0 76 -22 141 -63 184 -48 52 -153 89 -317 112 -142 20 -194 61 -170 134 12 39 57 67 128 81 44 9 134 -4 125 -17 -3 -7 -1 -8 5 -4 16 10 74 -22 66 -36 -5 -7 -3 -8 5 -3 7 4 22 -2 36 -15 13 -12 27 -21 32 -18 4 2 36 18 70 36 l62 32 -19 34 c-11 18 -29 41 -40 51 -11 10 -17 21 -15 25 3 4 -1 7 -8 7 -6 -1 -39 12 -72 28 -55 27 -70 30 -185 32 -83 2 -139 -2 -165 -11z"
       id="path4056" />
    <path
       d="M31955 4133 c-27 -8 -56 -20 -62 -25 -9 -7 -18 -6 -30 3 -15 10 -16 10 -6 0 9 -10 4 -20 -23 -44 -68 -59 -97 -155 -75 -244 31 -125 124 -181 351 -212 130 -18 200 -61 200 -123 0 -46 -20 -75 -71 -103 -40 -21 -61 -26 -121 -26 -117 1 -188 32 -235 102 -25 37 -26 38 -53 24 -15 -8 -30 -11 -34 -8 -3 4 -6 1 -6 -5 0 -7 -15 -18 -34 -26 -46 -19 -51 -31 -26 -66 12 -17 19 -30 16 -30 -15 0 83 -88 111 -100 17 -8 29 -19 26 -25 -4 -5 -3 -7 1 -4 4 4 31 1 59 -7 62 -16 256 -18 312 -3 51 14 103 38 134 61 13 10 27 15 32 12 5 -3 6 2 3 10 -3 9 -2 16 3 16 5 0 20 21 34 48 20 39 24 62 24 133 0 78 -3 90 -30 135 -53 85 -130 119 -354 155 -118 18 -171 50 -171 102 0 123 246 153 364 44 16 -15 30 -27 32 -27 13 0 134 66 134 73 0 18 -63 99 -86 109 -13 6 -21 15 -18 20 3 5 2 8 -3 7 -21 -4 -34 2 -27 13 4 6 3 9 -2 5 -5 -3 -34 1 -64 9 -72 18 -240 17 -305 -3z"
       id="path4058" />
    <path
       d="M21265 4134 c-119 -29 -160 -50 -225 -114 -141 -138 -182 -322 -119 -526 45 -147 168 -253 326 -284 131 -26 311 2 393 60 16 12 35 18 42 14 7 -4 10 -3 5 1 -4 5 2 18 13 30 l21 22 -59 63 -59 62 -42 -30 c-64 -47 -131 -65 -215 -60 -76 5 -174 44 -168 67 1 7 -2 10 -7 7 -5 -3 -21 8 -35 25 -46 55 -59 97 -60 194 -1 75 3 98 22 138 14 27 28 44 34 40 7 -4 8 -1 4 6 -10 15 23 53 37 44 5 -3 7 -1 3 5 -3 6 16 21 48 37 102 50 235 42 321 -20 l47 -33 54 54 c58 58 65 77 34 94 -11 6 -18 15 -15 21 4 5 3 8 -2 7 -4 -1 -43 15 -86 37 -74 37 -83 39 -185 41 -59 2 -116 1 -127 -2z"
       id="path4060" />
    <path
       d="M17240 4122 l-85 -3 3 -449 2 -449 86 -3 c47 -2 88 -1 90 1 7 8 4 900 -3 903 -5 2 -46 2 -93 0z"
       id="path4062" />
    <path
       d="M18258 3672 c-2 -250 -2 -454 -1 -455 1 -1 42 -1 92 1 l91 3 0 150 0 149 74 0 73 0 62 -70 c37 -41 59 -75 55 -81 -4 -7 -3 -9 3 -6 6 4 41 -27 78 -68 l67 -75 104 0 c111 0 125 8 84 45 -11 10 -17 22 -13 28 3 5 1 7 -5 3 -5 -3 -24 11 -40 31 -16 21 -46 56 -67 78 -20 22 -54 61 -76 86 l-39 47 28 5 c38 8 107 56 137 97 39 53 59 132 52 208 -11 111 -68 196 -166 244 -44 22 -59 23 -318 28 l-273 5 -2 -453z m470 282 c41 -8 105 -70 99 -95 -3 -12 -1 -17 5 -12 18 10 2 -77 -19 -106 -38 -51 -75 -61 -230 -61 l-143 0 0 140 0 140 129 0 c71 0 142 -3 159 -6z"
       id="path4064" />
    <path
       d="M25890 4128 c0 -2 -1 -207 -3 -455 l-2 -453 343 -2 342 -3 0 90 0 90 -250 -3 -250 -3 0 101 0 100 240 0 240 0 0 80 0 80 -240 0 -240 0 0 100 0 101 250 -3 250 -3 0 93 0 92 -340 0 c-187 0 -340 -1 -340 -2z"
       id="path4066" />
    <path
       d="M30163 4123 c-62 -2 -113 -6 -113 -9 0 -3 79 -125 175 -270 l175 -263 0 -180 0 -180 85 -3 85 -3 0 185 c1 137 4 189 14 202 7 10 15 16 18 13 2 -3 5 1 5 7 0 11 147 230 289 432 19 26 34 52 34 57 0 5 -48 9 -108 9 l-107 0 -60 -95 c-33 -52 -63 -95 -67 -95 -5 0 -8 -5 -8 -10 0 -17 -91 -150 -99 -145 -14 8 -114 177 -114 191 0 8 -3 12 -5 9 -8 -8 -82 118 -75 128 4 6 1 7 -7 2 -10 -6 -12 -4 -7 8 3 10 5 16 4 15 -1 -1 -53 -4 -114 -5z"
       id="path4068" />
    <path
       d="M34937 4123 c-4 -3 -7 -208 -7 -455 l0 -448 345 0 345 0 0 85 0 85 -255 0 -255 0 0 100 0 100 245 0 245 0 0 80 0 80 -245 0 -245 0 0 100 0 100 255 0 256 0 -3 88 -3 87 -336 3 c-184 1 -338 -1 -342 -5z"
       id="path4070" />
    <path
       d="M36510 3670 l0 -455 82 0 83 0 5 319 5 319 83 -112 c46 -61 80 -116 77 -122 -4 -5 -1 -8 5 -7 7 2 33 -27 58 -64 60 -88 83 -91 134 -18 19 27 38 46 42 42 4 -4 6 -2 4 4 -3 11 174 258 193 270 6 3 8 -115 7 -310 l-3 -315 88 -3 87 -3 0 455 0 455 -100 -3 c-85 -3 -102 -6 -113 -23 -8 -10 -17 -17 -20 -14 -4 3 -5 2 -3 -1 4 -5 -96 -149 -114 -164 -3 -3 -14 -18 -24 -35 -21 -32 -32 -47 -58 -76 -10 -10 -19 -22 -19 -26 -1 -5 -7 -15 -12 -24 -9 -14 -22 -1 -79 77 -38 52 -66 100 -62 106 4 6 3 8 -4 5 -6 -4 -38 32 -74 82 l-63 89 -103 4 -102 3 0 -455z"
       id="path4072" />
    <path
       d="M13730 3670 l0 -450 90 0 90 0 0 180 0 180 215 0 215 0 0 -180 0 -180 90 0 90 0 0 450 0 450 -90 0 -90 0 -2 -187 -3 -188 -212 -3 -213 -2 0 190 0 190 -90 0 -90 0 0 -450z"
       id="path4074" />
    <path
       d="M15724 4096 c-1 -11 -38 -102 -84 -201 -45 -99 -109 -241 -142 -315 -33 -74 -70 -157 -83 -185 -59 -130 -76 -168 -73 -171 3 -2 162 -6 195 -5 7 1 10 8 6 18 -4 11 -3 14 5 9 7 -4 10 -2 7 6 -2 7 10 40 28 73 l32 60 226 3 226 2 39 -86 39 -86 93 0 c52 0 96 2 98 5 2 2 -14 44 -37 93 -22 49 -76 168 -119 264 -43 96 -89 200 -103 230 -62 138 -65 146 -54 166 9 16 8 17 -4 7 -12 -10 -20 1 -48 63 l-34 75 -106 -2 c-101 -1 -106 -2 -107 -23z m142 -243 c14 -32 32 -71 39 -88 8 -16 32 -72 54 -122 l40 -93 -159 0 -159 0 35 83 c20 45 41 94 46 109 5 16 14 26 18 23 4 -3 7 1 6 8 -1 12 46 137 52 137 2 0 14 -26 28 -57z"
       id="path4076" />
    <path
       d="M22825 4109 c7 -10 -104 -261 -119 -271 -6 -4 -8 -8 -4 -8 7 0 -5 -29 -122 -285 -69 -151 -140 -318 -138 -321 2 -1 45 -4 97 -5 l93 -2 36 79 c19 43 40 82 46 86 6 4 110 8 232 8 l221 0 38 -85 38 -85 98 0 99 0 -14 33 c-28 63 -218 489 -263 587 -17 36 -30 67 -31 70 0 3 -14 34 -31 70 -16 36 -37 82 -45 103 l-15 38 -111 -2 c-60 -1 -107 -5 -105 -10z m150 -279 c15 -36 46 -105 67 -153 22 -48 37 -95 34 -103 -3 -9 -1 -12 4 -9 6 3 10 1 10 -4 0 -7 -53 -11 -155 -11 l-155 0 12 29 c7 16 42 97 78 180 35 83 68 147 71 143 4 -4 19 -36 34 -72z"
       id="path4078" />
    <path
       d="M24258 3670 l2 -450 90 0 90 0 0 150 0 150 74 0 74 0 86 -97 c47 -53 83 -100 80 -105 -3 -5 -1 -7 5 -6 5 2 29 -19 53 -46 l43 -49 105 2 c58 1 106 4 109 6 2 3 -11 22 -30 43 -19 21 -56 64 -84 97 -27 32 -63 72 -80 90 -16 17 -40 43 -51 57 l-22 26 39 11 c21 6 58 27 83 46 24 18 48 30 52 27 4 -4 4 -2 0 5 -4 7 3 32 16 55 31 59 33 201 3 268 -24 55 -81 111 -143 142 -45 22 -58 23 -322 26 l-275 3 3 -451z m471 284 c17 -4 28 -11 24 -17 -3 -6 -1 -7 5 -3 27 16 82 -61 82 -114 0 -71 -63 -141 -105 -117 -18 9 -19 9 -6 -6 12 -16 3 -17 -138 -17 l-151 0 0 140 0 140 129 0 c71 0 142 -3 160 -6z"
       id="path4080" />
    <path
       d="M33328 4040 l4 -80 139 0 139 0 0 -370 0 -370 90 0 90 0 0 370 0 371 143 -2 142 -1 3 81 3 81 -378 0 -378 0 3 -80z"
       id="path4082" />
  </g>
</svg>
